<?xml version="1.0" encoding="UTF-8" standalone="no"?>
<svg
   xmlns:dc="http://purl.org/dc/elements/1.1/"
   xmlns:cc="http://creativecommons.org/ns#"
   xmlns:rdf="http://www.w3.org/1999/02/22-rdf-syntax-ns#"
   xmlns:svg="http://www.w3.org/2000/svg"
   xmlns="http://www.w3.org/2000/svg"
   version="1.1"
   id="svg2"
   viewBox="0 0 1506.0332 1506.4173"
   height="425.14444mm"
   width="425.03604mm">
  <defs
     id="defs4" />
  <metadata
     id="metadata7">
    <rdf:RDF>
      <cc:Work
         rdf:about="">
        <dc:format>image/svg+xml</dc:format>
        <dc:type
           rdf:resource="http://purl.org/dc/dcmitype/StillImage" />
        <dc:title></dc:title>
      </cc:Work>
    </rdf:RDF>
  </metadata>
  <g
     transform="translate(3379.4131,-97.123043)"
     id="layer1">
    <g
       transform="translate(-202.03051,-1082.8835)"
       id="g4269">
      <path
         style="fill:#31aff9;fill-opacity:1"
         d="m -2973.2853,2682.4372 c -0.3344,-0.3344 -8.1675,-1.1191 -17.4069,-1.7436 -13.419,-0.9072 -19.3049,-1.9479 -29.255,-5.1728 -70.6452,-22.8965 -124.0199,-76.2713 -146.9164,-146.9166 -3.0623,-9.4486 -4.38,-16.5307 -5.4573,-29.3312 -2.0245,-24.0573 -2.0245,-1108.4427 0,-1132.4999 1.0773,-12.8005 2.395,-19.8826 5.4573,-29.3312 22.8965,-70.6452 76.2712,-124.0199 146.9164,-146.9164 9.4486,-3.0623 16.5307,-4.38 29.3312,-5.4572 24.0572,-2.0246 1108.4428,-2.0246 1132.5,0 12.8005,1.0772 19.8826,2.3949 29.3313,5.4572 70.6451,22.8965 124.0197,76.2712 146.9162,146.9164 3.0625,9.4486 4.3801,16.5307 5.4574,29.3312 2.0245,24.0572 2.0245,1108.4426 0,1132.4999 -1.5308,18.1897 -5.2867,32.1947 -13.9001,51.8312 -22.471,51.2285 -64.7452,93.5028 -115.9735,115.9739 -17.7639,7.7917 -33.986,12.4344 -48.0813,13.76 -13.2671,1.2477 -1117.6922,2.8261 -1118.9193,1.599 z"
         id="path4242-4" />
      <g
         id="g4265"
         style="opacity:0.21600001"
         transform="translate(5.64285,1685.0295)">
        <path
           id="path4242"
           d="m -2978.9281,997.40765 c -0.3344,-0.3344 -8.1675,-1.1191 -17.4069,-1.7436 -13.419,-0.9072 -19.3049,-1.9479 -29.255,-5.1728 -70.6452,-22.8965 -124.0199,-76.2713 -146.9164,-146.9165 -3.0623,-9.4486 -4.38,-16.5307 -5.4573,-29.3312 -2.0245,-24.0573 -2.0245,-1108.44272 0,-1132.49991 1.0773,-12.8005 2.395,-19.88258 5.4573,-29.33121 22.8965,-70.64521 76.2712,-124.01989 146.9164,-146.91639 9.4486,-3.06234 16.5307,-4.38001 29.3312,-5.45725 24.0572,-2.02457 1108.4428,-2.02457 1132.5,0 12.8005,1.07724 19.8826,2.39491 29.3313,5.45725 70.6451,22.8965 124.0197,76.27118 146.9162,146.91639 3.0624,9.44863 4.38,16.53071 5.4573,29.33121 2.0245,24.05719 2.0245,1108.44261 0,1132.49991 -1.5308,18.1897 -5.2866,32.1947 -13.9,51.8312 -22.471,51.2284 -64.7452,93.5027 -115.9735,115.9738 -17.7639,7.7917 -33.986,12.4344 -48.0813,13.76 -13.2671,1.2477 -1117.6922,2.8261 -1118.9193,1.599 z"
           style="fill:#ffffff;fill-opacity:1" />
        <path
           id="path4203"
           d="m -2980.9991,995.81524 c -5.1562,-0.5928 -10.2187,-1.3014 -11.25,-1.5748 -1.0312,-0.2734 251.5313,-0.4919 561.25,-0.4855 393.1843,0.013 561.4275,0.4044 557.5,1.3134 -7.0053,1.6214 -1093.5201,2.3541 -1107.5,0.7469 z m -40.625,-8.4935 c -29.2158,-9.0634 -55.3123,-23.2469 -78.75,-42.8008 -6.1875,-5.1622 -12.022,-10.3267 -12.9656,-11.4766 -1.6019,-1.9524 7.9839,-2.0909 144.6876,-2.0909 l 146.403,0 0,-149.375 0,-149.37504 -149.375,0 -149.375,0 0,145.62504 c 0,80.0938 -0.4219,145.6247 -0.9375,145.6241 -1.4499,0 -16.8282,-19.5622 -23.389,-29.7503 -7.5423,-11.712 -19.6031,-36.7843 -23.8712,-49.6238 -1.8283,-5.5 -4.6642,-15.9062 -6.3019,-23.125 l -2.9778,-13.125 -0.011,-117.81254 -0.011,-117.8125 208.125,0 208.125,0 0,209.37504 0,209.375 -124.0625,-0.071 -124.0625,-0.071 -11.25,-3.49 z m 319.375,-145.7206 0,-149.35244 29.6875,-0.3351 29.6875,-0.3352 0.3351,-29.6875 0.3352,-29.6875 -30.0227,0 -30.0226,0 0,-59.9917 0,-59.9917 -89.6875,-0.3208 -89.6875,-0.3208 0,-29.375 0,-29.375 59.6649,-0.3246 59.6649,-0.3246 0.3351,-29.6754 0.3351,-29.6754 29.375,0 29.375,0 0.3351,29.665 0.335,29.6649 29.665,0.3351 29.6649,0.335 0.3246,59.6649 0.3246,59.6649 29.6754,0.3351 29.6754,0.3351 0.3246,59.7101 0.3247,59.7101 29.6753,-0.3351 29.6754,-0.3351 0.2585,-28.125 c 0.1421,-15.4687 0.2827,-28.8337 0.3125,-29.6998 0.043,-1.2481 12.1809,-1.5075 58.4915,-1.25 l 58.4375,0.3248 0.3352,29.7101 0.3352,29.7101 29.6648,-0.3351 29.6648,-0.3351 0,-29.375 0,-29.375 -29.6875,-0.3351 -29.6875,-0.3351 0,-29.9548 0,-29.9547 29.6875,-0.3351 29.6875,-0.3352 0,-29.375 0,-29.375 -29.6875,-0.3351 -29.6875,-0.3351 0,-29.9652 0,-29.9651 -58.8028,-0.3247 -58.8029,-0.3248 0.01,-28.4802 c 0,-15.6641 0.3203,-28.9896 0.7052,-29.6122 0.4006,-0.6483 25.2072,-1.1535 58.0482,-1.1823 50.8612,-0.044 57.4334,0.1707 58.0977,1.902 0.4121,1.0737 0.7492,14.5624 0.7492,29.975 l 4e-4,28.0227 59.3524,0 59.3524,0 0.3351,29.6875 0.3351,29.6875 29.7359,0 29.7358,0 -0.072,-58.7112 c -0.04,-32.2912 -0.5005,-59.1397 -1.0242,-59.6634 -0.5236,-0.5236 -13.8723,-1.1035 -29.6637,-1.2887 l -28.7117,-0.3367 -0.337,-28.038 c -0.1854,-15.4209 0.1641,-28.5391 0.7766,-29.1516 0.6125,-0.6125 13.6218,-1.0551 28.9097,-0.9836 15.8505,0.074 28.4094,-0.3783 29.2234,-1.0528 1.0138,-0.8402 1.3238,-9.5425 1.07,-30.0409 l -0.3573,-28.8581 -28.3927,-0.019 c -15.616,-0.01 -29.1138,-0.4767 -29.9952,-1.036 -1.2839,-0.8146 -1.5324,-18.3936 -1.25,-88.4183 l 0.3525,-87.401496 29.6875,-0.3352 29.6875,-0.3351 0,-28.7274 c 0,-15.8 0,-29.1492 0,-29.6648 0,-0.5157 -13.3594,-0.9375 -29.6875,-0.9375 l -29.6875,0 -0.3351,29.6875 -0.3351,29.6875 -29.3298,0 -29.3297,0 -0.3352,-29.6875 -0.3351,-29.6875 -29.6648,-0.3351 -29.6648,-0.3351 -0.3352,29.7101 -0.3352,29.7101 -28.75,0 -28.75,0 -0.1776,-29.375 -0.1775,-29.375 -29.4874,-0.3351 -29.4874,-0.3351 -0.335,-29.6648995 -0.3351,-29.6649005 -29.6648,-0.3351 -29.6648,-0.3351 -0.3352,29.7101005 -0.3352,29.7100995 -119.375,0 -119.375,0 0,-29.3749995 0,-29.3750005 89.6875,-0.3208 89.6875,-0.3208 0,-29.9917 0,-29.9917 -30.0121,0 -30.0121,0 0.3246,-59.687504 0.3246,-59.6875 29.375,-0.2458 29.375,-0.2457 0,-29.7543 0,-29.7542 -28.125,-0.2585 c -15.4687,-0.1421 -28.8281,-0.2828 -29.6875,-0.3125 -1.2041,-0.042 -1.5625,-6.7929 -1.5625,-29.4373 l 0,-29.3833 89.6875,0.3208 89.6875,0.3208 0.337,28.0379 c 0.1963,16.3335 -0.1537,28.5288 -0.8385,29.2136 -0.6555,0.6555 -13.7989,1.247 -29.712,1.337 l -28.5365,0.1615 -0.3246,59.6648 -0.3246,59.6649 29.6996,0.3351 29.6996,0.3352 0.2031,29.375 0.203,29.375004 29.4619,0.335 29.4619,0.3351 0.335,29.6649 0.3351,29.665 178.4375,0.3167 178.4375,0.3168 0,60.0183 0,60.0184 29.6875,-0.3351 29.6875,-0.3351 0.3246,-59.7101 0.3247,-59.7101 29.6753,0.3351 29.6754,0.3351 0,89.375 0,89.374996 -29.375,0.2455 -29.375,0.2455 -0.3247,58.7943 -0.3247,58.7944 29.6997,0.3351 29.6997,0.3352 0.3208,89.0625 0.3209,89.0625 29.969,0 29.9691,0 0.3351,-29.6875 0.3351,-29.6875 28.9126,-0.3696 28.9128,-0.3696 0.8381,3.3394 c 0.461,1.8367 0.7456,15.2218 0.6325,29.7446 l -0.2056,26.4052 29.4723,0.335 29.4724,0.335 0.3575,-29.085 c 0.2257,-18.3671 -0.1037,-29.4235 -0.8926,-30.0034 -0.6875,-0.5051 -14.0264,-0.927 -29.6419,-0.9375 l -28.3918,-0.019 -0.3582,-28.1359 c -0.197,-15.4747 -0.1706,-28.6935 0.059,-29.375 0.2591,-0.7705 11.2218,-1.2391 28.9887,-1.2391 18.654,0 28.8544,-0.4568 29.3854,-1.3159 0.4473,-0.7238 0.7739,-14.0832 0.7256,-29.6875 l -0.087,-28.3716 -29.0892,-0.625 -29.0894,-0.625 -0.625,-27.5 c -0.3438,-15.125 -0.1843,-28.1428 0.3544,-28.9285 0.712,-1.0386 16.9145,-1.409 59.375,-1.3574 l 58.3956,0.071 0.3246,-59.5801 0.3247,-59.580096 29.9962,0 29.9963,0 -0.3209,88.437496 -0.3209,88.4375 -29.7101,0.3352 -29.71,0.3352 0.335,29.6648 0.3351,29.6648 29.375,0.2035 29.375,0.2036 0.3246,59.4839 0.3247,59.484 -60.0122,0 -60.0121,0 0,29.9774 0,29.9774 -29.4347,0.3351 -29.4349,0.3351 -0.2526,59.375 -0.2528,59.375 -29.6875,0.3352 -29.6875,0.3351 0,29.9774 0,29.9773 59.375,0 59.375,0 0,30 0,30.00004 -59.3524,0 -59.3523,0 -0.3352,29.6875 -0.3351,29.6875 -25.625,0.3658 c -14.0937,0.2011 -27.4531,0.035 -29.6875,-0.3691 l -4.0625,-0.7349 0,-29.3184 0,-29.3184 -29.9774,0 -29.9773,0 -0.3352,29.6875 -0.3351,29.6875 -26.8541,0.3749 c -14.7697,0.2061 -28.1291,0.055 -29.6875,-0.3364 l -2.8339,-0.7111 0,-29.3576 0,-29.3573 -119.425,0.3187 -119.4251,0.3188 0.025,28.4375 c 0.014,15.6406 0.036,29.0107 0.05,29.7113 0.017,0.8537 29.402,1.2497 89.0875,1.2004 l 89.0625,-0.074 0.3351,29.4125 0.3351,29.4125 -59.7101,0.3246 -59.7101,0.3247 -0.3246,59.6875 -0.3246,59.6875 -59.3629,0 -59.3629,0 0,-30 0,-30 -58.7044,0 -58.7043,0 -0.3582,-28.4375 c -0.1969,-15.6407 0.1481,-29.1593 0.7668,-30.0414 0.8634,-1.231 7.6478,-1.5735 29.1813,-1.473 15.431,0.072 28.4248,-0.2376 28.8751,-0.6881 0.4503,-0.4505 0.8187,-13.569 0.8187,-29.1522 l 0,-28.3328 28.75,-0.625 28.75,-0.625 0.3351,-29.6875 0.3352,-29.6875 -29.3977,0 -29.3976,0 0,29.2412 c 0,25.0634 -0.2726,29.3459 -1.9079,29.9734 -2.492,0.9562 -112.4422,0.9562 -114.9342,0 -1.6352,-0.6273 -1.9078,-4.9098 -1.9078,-29.9731 l 0,-29.2413 -30.0226,0 -30.0226,0 0.3351,29.6875 0.3351,29.6875 29.6875,0.3352 29.6875,0.3351 0,59.3524 0,59.3523 29.3512,0 29.3512,0 0.6897,2.8125 c 0.3794,1.5469 0.5307,14.9063 0.3364,29.6875 l -0.3535,26.875 -29.6875,0.3351 -29.6875,0.3352 0,-30.0226 0,-30.0227 -30,0 -30,0 0,30 0,30 -30,0 -30,0 0,-149.3523 z m 356.875,59.3523 0,-29.375 -29.6875,-0.3351 -29.6875,-0.3351 0,30.0452 0,30.0453 29.6875,-0.3351 29.6875,-0.3352 0,-29.375 z m 119.375,-267.50004 c 0,-32.3125 0,-59.1719 0,-59.6875 0,-0.5156 -13.3594,-0.9375 -29.6875,-0.9375 l -29.6875,0 -0.3257,58.125 c -0.1792,31.9688 -0.056,58.8281 0.2733,59.6875 0.4557,1.1888 7.6346,1.5625 30.0132,1.5625 l 29.4142,0 0,-58.75 z m 239.375,-31.25 0,-89.375 -89.6875,-0.3208 -89.6875,-0.3207 0,89.1749 c 0,49.0462 0.3787,89.5537 0.8416,90.0166 0.4629,0.4628 40.8223,0.6972 89.6875,0.5208 l 88.8459,-0.3208 0,-89.375 z m -118.8139,28.4092 c -0.3357,-0.8749 -0.4587,-14.2343 -0.2733,-29.6875 l 0.3372,-28.0967 29.375,0 29.375,0 0.3351,29.6875 0.3352,29.6875 -29.4369,0 c -22.6755,0 -29.5771,-0.3654 -30.0473,-1.5908 z m -0.851,-267.7297 c 0.2535,-22.2622 0.7102,-29.4426 1.875,-29.4835 0.847,-0.03 14.1962,-0.1704 29.6649,-0.3125 l 28.125,-0.2585 0.3351,-29.6648 0.335,-29.6648 -29.71,-0.3352 -29.7101,-0.3352 -0.625,-58.5113 -0.625,-58.5114 -29.375,3e-4 -29.375,3e-4 -0.3224,117.261 c -0.1773,64.4936 -0.1085,117.8236 0.1529,118.5111 0.302,0.7945 11.1256,1.156 29.6973,0.992 l 29.2222,-0.2579 0.3351,-29.4296 z m -475.9601,-476.9295 0,-30 -30,0 -30,0 0,30 0,30.000004 30,0 30,0 0,-30.000004 z m 476.5504,1045.31254 0.3246,-59.6875 29.375,0 29.375,0 0.3246,59.6875 0.3246,59.6875 -30.0242,0 -30.0242,0 0.3246,-59.6875 z m 239.6621,59.2269 c -0.02,-0.4341 -0.037,-13.4457 -0.037,-28.9144 0,-15.4687 0.017,-28.6875 0.037,-29.375 0.025,-0.8152 20.6915,-1.25 59.4246,-1.25 l 59.3872,0 -0.3247,-59.5168 -0.3246,-59.5168 -26.4051,0.2051 c -14.5229,0.1125 -27.8925,-0.1681 -29.7103,-0.6243 l -3.305,-0.8295 0.3351,-28.9214 0.3353,-28.9213 59.7534,-0.3246 59.7533,-0.3247 -0.4041,39.0747 -0.4042,39.0746 -4.0838,11.875 c -14.7192,42.8009 -40.537,79.4617 -75.4137,107.0864 -26.1705,20.7287 -67.3673,39.7561 -89.5134,41.343 -4.9844,0.3571 -9.0794,0.2941 -9.1,-0.14 z m -119.6727,-89.2042 0.3352,-29.7102 29.0329,-0.3355 29.033,-0.3353 0.6955,2.8353 c 0.3825,1.5595 0.5365,14.9293 0.3421,29.7105 l -0.3535,26.875 -29.7102,0.3352 -29.7101,0.3352 0.3351,-29.7102 z m -1075.2898,-119.7102 0,-89.37504 89.2708,0 c 58.3266,0 89.4153,0.4328 89.6875,1.2484 0.2292,0.6867 0.2686,40.90544 0.088,89.37504 l -0.329,88.1266 -89.3584,0 -89.3584,0 0,-89.375 z m 1015,60 c 0,-18.733 0.4529,-29.3842 1.25,-29.4005 0.6875,-0.014 13.625,-0.025 28.75,-0.025 15.125,0 28.0625,0.012 28.75,0.025 0.7972,0.016 1.25,10.6675 1.25,29.4005 l 0,29.375 -30,0 -30,0 0,-29.375 z m 179.9835,29.0625 c -0.3816,-7.2485 0.029,-57.6168 0.4736,-58.0614 0.3524,-0.3522 13.4718,-0.5889 29.1543,-0.526 l 28.5136,0.115 0.3351,29.3927 0.3351,29.3926 -29.3976,0 c -16.1687,0 -29.405,-0.1406 -29.4141,-0.3125 z m 181.5587,-623.43754 c 0,-422.7259 0.3532,-561.4109 1.4164,-556.25 2.0295,9.8512 2.0295,1102.64894 0,1112.50004 -1.0632,5.1609 -1.4164,-133.52414 -1.4164,-556.25004 z m -122.2197,443.4375 c -0.3294,-0.8594 -0.4524,-27.7187 -0.2733,-59.6875 l 0.3258,-58.125 29.6649,-0.335 29.665,-0.3351 0.335,-29.6649 0.3351,-29.665 29.375,0 29.375,0 0.3246,59.6875 0.3247,59.6875 -30.0122,0 -30.0121,0 0,30 0,30 -29.4143,0 c -22.3786,0 -29.5574,-0.3737 -30.0132,-1.5625 z m -775.5725,-148.4254 0,-30.0121 59.375,0 c 38.725,0 59.388,0.4348 59.4125,1.25 0.021,0.6875 0.054,14.0469 0.075,29.6875 l 0.038,28.4375 -59.4501,0.3246 -59.4501,0.3247 0,-30.0122 z m -596.25,-149.3871 0,-119.375 28.75,0 28.75,0 0,119.375 0,119.375 -28.75,0 -28.75,0 0,-119.375 z m 117.8042,29.9747 0.3208,-89.4456 58.9199,0.071 c 53.9419,0.065 58.9877,-0.1055 59.7216,-2.018 0.4409,-1.1489 0.7535,-27.3765 0.6948,-58.2835 -0.059,-30.9071 0.254,-56.5556 0.6949,-56.9966 0.441,-0.4411 13.4174,-0.855 28.8365,-0.9198 15.4191,-0.065 28.3493,-0.4326 28.734,-0.8172 0.3846,-0.3846 0.641,-13.6909 0.5697,-29.5696 l -0.1295,-28.8704 30.0189,0 30.019,0 0.3351,29.6159 0.3351,29.6158 29.375,-0.1083 29.375,-0.1082 0,-29.6441 0,-29.6441 -27.5524,0.1971 c -15.1538,0.1083 -28.5132,-0.1717 -29.6875,-0.6223 -1.9293,-0.7403 -2.1351,-3.6382 -2.1351,-30.0605 l 0,-29.241296 89.9879,0 89.9879,0 0.3246,59.619796 0.3246,59.6197 58.4181,-0.084 c 45.2313,-0.065 58.7103,0.2683 59.7123,1.4757 0.8289,0.9988 1.173,11.3897 0.9569,28.9015 l -0.3373,27.3419 -89.6875,0.3208 -89.6875,0.3208 0,29.233 c 0,25.5035 -0.2522,29.3298 -1.9772,29.9917 -2.5788,0.9896 -53.4668,0.9896 -56.0456,0 -1.725,-0.6619 -1.9772,-4.4889 -1.9772,-30 l 0,-29.2413 -30,0 -30,0 0,29.2413 c 0,26.4223 -0.2058,29.3203 -2.1351,30.0606 -1.1743,0.4506 -14.5337,0.7305 -29.6875,0.6221 l -27.5524,-0.1973 -0.3246,59.4996 -0.3246,59.4995 -59.4719,0.3246 -59.4719,0.3246 -0.2035,29.375 -0.2035,29.375 -29.6958,0.3352 -29.6958,0.3351 0.3208,-89.4456 z m 418.1559,-0.2872 -0.3351,-29.6875 -29.6875,-0.3351 -29.6875,-0.3351 0,-29.3607 0,-29.3606 89.6875,0.3207 89.6875,0.3208 0.3646,29.0625 0.3645,29.0625 -30.052,0 -30.0521,0 0,30 0,30 -29.9774,0 -29.9773,0 -0.3352,-29.6875 z m -179.7101,-59.6875 0,-29.375 30,0 30,0 0,29.375 0,29.375 -30,0 -30,0 0,-29.375 z m 301.6068,-30.3708 c -1.1108,-0.7112 -1.5421,-8.3395 -1.6071,-28.4256 -0.049,-15.0995 -0.069,-28.1567 -0.044,-29.0161 0.034,-1.2044 6.7766,-1.5625 29.4195,-1.5625 22.6028,0 29.4027,-0.3602 29.4949,-1.5625 0.066,-0.8594 0.2066,-27.1562 0.3125,-58.4375 l 0.1926,-56.875 27.9213,-0.625 c 19.1793,-0.4293 28.2711,-0.2026 29.0385,0.7242 0.6144,0.742 1.2686,14.242 1.4537,30 l 0.3365,28.6508 29.0722,-0.1788 c 28.7525,-0.1769 29.0795,-0.1494 29.7288,2.5 0.361,1.4733 0.4973,14.4913 0.3027,28.9288 l -0.3537,26.25 -29.6649,0.3351 -29.665,0.3351 -0.335,29.6649 -0.3351,29.6649 -56.875,0.3006 c -31.2812,0.1653 -57.5582,-0.1369 -58.3932,-0.6714 z m 596.2057,0.168 c -1.1876,-0.4792 -1.5625,-7.6543 -1.5625,-29.9013 l 0,-29.2709 29.2412,0 c 25.5112,0 29.3382,0.2522 30,1.9773 0.4174,1.0874 0.7588,13.6977 0.7588,28.0227 0,14.3251 -0.3414,26.9353 -0.7588,28.0228 -0.6618,1.7248 -4.2921,1.9646 -28.4375,1.8785 -15.2232,-0.054 -28.3818,-0.3824 -29.2412,-0.7291 z m -1135.993,-60.7411 c -0.3409,-0.8884 -0.4679,-13.9769 -0.2822,-29.0857 l 0.3377,-27.4704 28.5563,0 c 15.706,0 29.0764,0.3213 29.712,0.7139 0.6685,0.413 1.0137,12.5327 0.8187,28.75 l -0.337,28.0361 -29.0929,0.3356 c -22.8709,0.2639 -29.2254,-0.01 -29.7126,-1.2795 z m 1075,0 c -0.3409,-0.8884 -0.4679,-13.9769 -0.2822,-29.0857 l 0.3377,-27.4704 29.375,0 29.375,0 0,28.75 0,28.75 -29.0929,0.3356 c -22.8709,0.2639 -29.2254,-0.01 -29.7126,-1.2795 z m -1192.5475,-57.0769 c -0.2871,-0.2865 -0.522,-54.1458 -0.522,-119.687496 l 0,-119.1667 148.1333,0 148.1333,0 -0.3208,89.6875 -0.3208,89.687496 -28.125,0.2792 c -15.4687,0.1535 -28.8457,0.2941 -29.7265,0.3125 -1.2586,0.026 -1.5748,6.2166 -1.4767,28.9058 0.069,15.8799 -0.081,29.0787 -0.3334,29.3308 -0.3477,0.3476 -48.0572,0.8434 -56.9009,0.5913 -1.235,-0.035 -1.5625,-18.7767 -1.5625,-89.4196 l 0,-89.374996 -60,0 -60,0 0,30 0,30 30.0226,0 30.0226,0 -0.3351,29.687496 -0.3351,29.6875 -29.375,0.2031 -29.375,0.203 -0.3351,29.4845 c -0.2536,22.3108 -0.7098,29.4958 -1.875,29.531 -13.2505,0.4008 -55.0054,0.4443 -55.3929,0.058 z m 596.4821,-59.7668 c -0.4148,-0.4147 -0.7541,-27.3892 -0.7541,-59.943296 l 0,-59.1893 29.6875,0.3351 29.6875,0.3351 0.3251,57.9818 c 0.2376,42.367596 -0.063,58.449296 -1.116,59.718196 -1.1562,1.393 -6.9421,1.7147 -29.2586,1.6264 -15.2995,-0.061 -28.1567,-0.4492 -28.5714,-0.864 z m 716.134,-0.3161 c -0.4335,-0.7014 -0.7883,-14.0712 -0.7887,-29.7108 l -7e-4,-28.435496 29.4733,-0.3351 29.4734,-0.3352 -0.3353,29.710196 -0.3351,29.7101 -28.3494,0.3358 c -18.2873,0.2165 -28.6291,-0.1169 -29.1375,-0.9395 z m -60.6381,-148.7712955 0,-30.0000005 29.2412,0 c 25.5112,0 29.3382,0.2523 30,1.9773 0.4174,1.0874 0.7588,13.6977005 0.7588,28.0227005 0,14.3250995 -0.3414,26.9352995 -0.7588,28.0227995 -0.6618,1.725 -4.4888,1.9772 -30,1.9772 l -29.2412,0 0,-29.9999995 z m 119.3621,28.4374995 c -0.3077,-0.8593 -0.4306,-14.2187 -0.2732,-29.6874995 l 0.2861,-28.1250005 29.6875,-0.3351 29.6875,-0.3351 0,30.0226005 0,30.0225995 -29.4143,0 c -22.3996,0 -29.5476,-0.3726 -29.9736,-1.5625 z m -1371.8508,-233.125004 0.011,-114.6875 2.9778,-13.125 c 1.6377,-7.2187 4.4736,-17.625 6.3019,-23.125 4.2681,-12.8394 16.3289,-37.9117 23.8712,-49.6237 6.5608,-10.1881 21.9391,-29.7489 23.389,-29.7504 0.5156,-5e-4 0.9375,64.1241 0.9375,142.4991 l 0,142.5 149.375,0 149.375,0 0,-149.375 0,-149.375 -142.5,0 c -78.375,0 -142.4996,-0.4218 -142.4991,-0.9375 0,-1.4499 19.5622,-16.8282 29.7503,-23.389 11.7121,-7.5423 36.7844,-19.603 49.6238,-23.8711 5.5,-1.8283 15.9063,-4.6642 23.125,-6.3019 l 13.125,-2.9777 114.6875,-0.011 114.6875,-0.011 0,208.1249 0,208.125004 -208.125,0 -208.125,0 0.011,-114.687504 z m 715.7848,112.807504 c -0.4066,-1.0594 -0.7068,-14.429104 -0.6672,-29.710604 l 0.072,-27.7844 -29.498,-0.3352 -29.498,-0.3351 0.3351,-29.6649 0.335,-29.6648 58.125,0 58.125,0 0,59.375 0,59.375004 -28.2949,0.3356 c -24.5373,0.2911 -28.3931,0.08 -29.034,-1.5906 z m 117.9539,-28.120004 0,-30 29.375,0 29.375,0 0,30 0,30.000004 -29.375,0 -29.375,0 0,-30.000004 z m 119.3111,28.409204 c -0.3357,-0.8749 -0.4587,-14.2343 -0.2733,-29.687504 l 0.3372,-28.0967 29.6875,-0.3351 29.6875,-0.3351 0,30.0226 0,30.022604 -29.4142,0 c -22.6572,0 -29.5545,-0.3654 -30.0247,-1.5908 z m 119.4389,-206.534204 0,-208.1249 117.8125,0.011 117.8125,0.011 13.125,2.9778 c 7.2187,1.6377 17.625,4.4736 23.125,6.3019 12.8395,4.2681 37.9118,16.3288 49.6237,23.871 10.1882,6.5609 29.7489,21.9392 29.7504,23.3891 5e-4,0.5156 -65.5303,0.9375 -145.6241,0.9375 l -145.625,0 0,149.375 0,149.375 149.375,0 149.375,0 0,-146.4031 c 0,-136.7036 0.1385,-146.2894 2.0909,-144.6875 4.2471,3.4849 21.0682,24.531 27.5593,34.4819 8.386,12.8554 20.2282,37.2924 25.6152,52.8587 l 4.1096,11.875 0.3357,125.9375 0.3359,125.937504 -209.3984,0 -209.3982,0 0,-208.125004 z m -179.1841,147.1839 c -1.2722,-2.0585 -0.6611,-55.8642 0.6525,-57.447 1.0207,-1.2299 8.1147,-1.6119 29.9347,-1.6119 l 28.5969,0 0,30 0,30 -29.3012,0 c -16.1157,0 -29.563,-0.4235 -29.8829,-0.9411 z m -58.5275,-59.1872 c -0.7358,-0.4563 -1.164,-12.1046 -1.0858,-29.5381 0.117,-26.0794 -0.072,-28.8618 -2.009,-29.6052 -1.1759,-0.4513 -27.3335,-0.756 -58.1278,-0.6771 -30.7943,0.079 -56.5195,-0.1841 -57.1671,-0.5844 -0.7141,-0.4413 -1.098,-23.72 -0.9756,-59.1598 l 0.2019,-58.4321 28.75,0 28.75,0 0.3352,29.7101 0.3352,29.7101 29.6648,-0.3351 29.6648,-0.3351 0.2446,-29.375 0.2446,-29.375 29.5195,-0.625 29.5195,-0.625 0.2359,-29.375 0.2359,-29.375 29.6958,-0.3351 29.6958,-0.3352 -0.3208,89.5066 -0.3208,89.5065 -29.375,0.2036 -29.375,0.2036 -0.335,29.642 -0.335,29.642 -28.2258,0.358 c -15.5242,0.1969 -28.7725,0.019 -29.4408,-0.3953 z m 358.96,0.3367 c -0.8157,-0.2723 -1.2484,-31.361 -1.2484,-89.6875 l 0,-89.2709 89.375,0 89.375,0 0,89.3584 0,89.3584 -88.1266,0.3291 c -48.4696,0.181 -88.6884,0.1416 -89.375,-0.088 z m -1076.2484,-89.5834 0,-89.375 89.375,0 89.375,0 0,89.375 0,89.375 -89.375,0 -89.375,0 0,-89.375 z m 359.6058,-90.1858 c -0.4707,-0.4707 -0.8558,-13.991 -0.8558,-30.0451 l 0,-29.1893 29.6875,0.3351 29.6875,0.3351 0,29.375 0,29.375 -28.8317,0.335 c -15.8574,0.1842 -29.2168,-0.05 -29.6875,-0.5208 z m 119.1442,-57.9392 0,-58.7951 29.6875,0.3351 29.6875,0.3351 0,58.1249 0,58.125 -29.6875,0.3351 -29.6875,0.3352 0,-58.7953 z m 119.3851,-2.7889 c -0.305,-0.8724 -0.432,-13.6798 -0.2823,-28.4611 l 0.2722,-26.8749 29.086,-0.3356 29.0861,-0.3356 -0.3361,28.4605 -0.336,28.4606 -28.4677,0.3361 c -22.1168,0.261 -28.5914,-0.018 -29.0222,-1.25 z m 237.6982,0.7056 c -0.4583,-0.4583 -0.8333,-13.3958 -0.8333,-28.75 l 0,-27.9166 30,0 30,0 0,28.7499 0,28.75 -29.1667,0 c -16.0416,0 -29.5416,-0.375 -30,-0.8333 z"
           style="fill:#30adf7" />
      </g>
    </g>
    <g
       transform="translate(-1796.7609,-113.52377)"
       id="g4318">
      <path
         style="fill:#000000"
         d="m -596.44492,1706.529 c 0,-0.6875 -0.98438,-1.2657 -2.1875,-1.2848 -1.64416,-0.026 -91.51964,-174.6987 -361.84486,-703.2443 -308.82132,-603.81407 -359.40922,-703.45788 -357.90172,-704.96531 1.4926,-1.49267 31.439,-1.75557 199.9698,-1.75557 131.30952,0 198.21428,0.42192 198.21428,1.25 0,0.6875 0.98437,1.25148 2.1875,1.25329 1.65749,0.002 65.25917,124.74621 262.5,514.84845 162.00288,320.40864 260.31248,516.16904 260.31248,518.35094 0,5.252 -192.47361,374.2115 -195.23871,374.2601 -1.16255,0.02 -2.46137,0.5997 -2.88627,1.2872 -0.4249,0.6875 -1.30185,1.25 -1.94878,1.25 -0.64692,0 -1.17622,-0.5625 -1.17622,-1.25 z m 290.91768,-585.2425 c -3.7684,-7.0854 -48.0205,-92.3149 -98.3379,-189.39874 -75.8049,-146.2603 -91.4192,-177.2277 -91.0955,-180.6669 0.2343,-2.4885 46.6509,-94.16668 115.9174,-228.9501 l 115.5267,-224.79963 7.5983,0.64509 c 8.6559,0.73488 27.7678,6.6219 42.5545,13.10796 51.2284,22.47091 93.5027,64.74524 115.973697,115.97363 8.6134,19.63648 12.369201,33.64155 13.900001,51.83121 1.8227,21.65875 1.801,236.52247 -0.025,245.625 -0.8481,4.22804 -34.839598,71.35724 -105.069798,207.50004 -93.303,180.87024 -104.1337,201.28864 -106.9534,201.63244 -2.8172,0.3435 -3.8371,-0.9328 -9.9892,-12.5 z"
         id="path4301" />
      <path
         style="fill:#ffffff;fill-opacity:1"
         d="m -594.47296,1625.4401 c 0,-0.6875 -0.98438,-1.2657 -2.1875,-1.2848 -1.64416,-0.026 -91.51964,-174.6987 -361.84486,-703.24435 -308.82138,-603.81402 -359.40928,-703.45783 -357.90178,-704.96526 1.4926,-1.49267 31.439,-1.75557 199.9698,-1.75557 131.30958,0 198.21434,0.42192 198.21434,1.25 0,0.6875 0.98437,1.25148 2.1875,1.25329 1.65749,0.002 65.25917,124.74621 262.5,514.84845 162.00288,320.40864 260.31248,516.16904 260.31248,518.35094 0,5.252 -192.47361,374.2115 -195.23871,374.2601 -1.16255,0.02 -2.46137,0.5997 -2.88627,1.2872 -0.4249,0.6875 -1.30185,1.25 -1.94878,1.25 -0.64692,0 -1.17622,-0.5625 -1.17622,-1.25 z m 290.91762,-585.2425 c -3.7684,-7.0854 -48.0204,-92.31485 -98.33784,-189.39875 -75.8049,-146.26029 -91.4192,-177.22769 -91.0955,-180.66689 0.2343,-2.4885 46.6509,-94.16668 115.9174,-228.9501 l 115.52664,-224.79963 7.5983,0.64509 c 8.6559,0.73488 27.7678,6.6219 42.5545,13.10796 51.2284,22.47091 93.5027,64.74524 115.973704,115.97363 8.6134,19.63648 12.3692,33.64155 13.9,51.83121 1.8227,21.65875 1.801,236.52247 -0.025,245.625 -0.8481,4.22804 -34.839604,71.35724 -105.069804,207.50003 -93.303,180.87025 -104.1337,201.28865 -106.9534,201.63245 -2.8172,0.3435 -3.8371,-0.9328 -9.9892,-12.5 z"
         id="path4301-5" />
    </g>
  </g>
</svg>
